<?xml version="1.0" standalone="no"?><!-- Generator: Gravit.io --><svg xmlns="http://www.w3.org/2000/svg" xmlns:xlink="http://www.w3.org/1999/xlink" style="isolation:isolate" viewBox="0 0 148 120" width="148" height="120"><defs><clipPath id="_clipPath_k94dRzdA5rYwprxpvWvDn6PCneo0nAix"><rect width="148" height="120"/></clipPath></defs><g clip-path="url(#_clipPath_k94dRzdA5rYwprxpvWvDn6PCneo0nAix)"><g><rect x="17.062" y="42.37" width="85.877" height="56.303" transform="matrix(1,0,0,1,0,0)" fill="rgb(61,61,59)"/><g><rect x="11.375" y="42.37" width="11.374" height="56.303" transform="matrix(1,0,0,1,0,0)" fill="rgb(230,226,224)"/><rect x="97.251" y="42.37" width="11.374" height="56.303" transform="matrix(1,0,0,1,0,0)" fill="rgb(230,226,224)"/><rect x="69.006" y="42.37" width="11.374" height="56.303" transform="matrix(1,0,0,1,0,0)" fill="rgb(230,226,224)"/><rect x="39.62" y="42.37" width="11.374" height="56.303" transform="matrix(1,0,0,1,0,0)" fill="rgb(230,226,224)"/></g><g><rect x="5.687" y="94.407" width="108.625" height="17.062" transform="matrix(1,0,0,1,0,0)" fill="rgb(204,196,193)"/><mask id="_mask_bGgaM4F0MAe64xivlZcBXPZ75F2Bpv79"><path d=" M 108.104 30.222 L 114.313 34.123 L 5.687 34.123 L 60 0 L 108.104 30.222 Z " fill="white" stroke="none"/></mask><path d=" M 108.104 30.222 L 114.313 34.123 L 5.687 34.123 L 60 0 L 108.104 30.222 Z " fill="rgb(204,196,193)" mask="url(#_mask_bGgaM4F0MAe64xivlZcBXPZ75F2Bpv79)" vector-effect="non-scaling-stroke" stroke-width="0.4" stroke="rgb(0,150,136)" stroke-linejoin="round" stroke-linecap="round" stroke-miterlimit="4"/></g><g><rect x="5.687" y="34.123" width="108.625" height="11.374" transform="matrix(1,0,0,1,0,0)" fill="rgb(173,167,164)"/><rect x="0" y="105.782" width="120" height="14.218" transform="matrix(1,0,0,1,0,0)" fill="rgb(173,167,164)"/></g></g><g><g transform="matrix(1,0,0,1,53,4.764)"><text transform="matrix(1,0,0,1,0,21.377)" style="font-family:'Open Sans';font-weight:400;font-size:20px;font-style:normal;fill:#009688;stroke:none;">δ</text></g></g><g><g><path d=" M 146.977 44.302 C 148.78 32.768 145.917 21.982 138.919 13.932 C 131.921 5.882 121.64 1.546 109.966 1.726 C 109.336 1.735 108.748 2.246 108.651 2.869 C 108.554 3.491 108.984 3.987 109.614 3.977 C 120.679 3.806 130.426 7.916 137.06 15.548 C 143.694 23.18 146.408 33.404 144.7 44.336 C 144.651 44.647 144.735 44.927 144.909 45.127 C 145.083 45.328 145.349 45.449 145.663 45.445 C 146.292 45.436 146.881 44.924 146.977 44.302 Z " fill="rgb(0,150,136)"/><path d=" M 108.505 11.084 C 107.875 11.094 107.287 11.605 107.19 12.227 C 107.141 12.538 107.224 12.818 107.399 13.019 C 107.573 13.219 107.839 13.341 108.153 13.336 C 125.807 13.064 137.952 27.036 135.227 44.481 C 135.13 45.104 135.56 45.599 136.191 45.589 C 136.821 45.58 137.408 45.069 137.506 44.446 C 140.425 25.762 127.416 10.794 108.505 11.084 Z " fill="rgb(0,150,136)"/><path d=" M 123.463 27.368 C 119.494 22.802 113.663 20.345 107.042 20.445 C 106.412 20.455 105.824 20.966 105.727 21.589 C 105.63 22.211 106.061 22.707 106.691 22.697 C 112.702 22.605 117.998 24.838 121.603 28.985 C 125.208 33.132 126.681 38.687 125.754 44.627 C 125.706 44.938 125.789 45.217 125.964 45.418 C 126.138 45.619 126.403 45.74 126.718 45.735 C 127.348 45.726 127.936 45.215 128.033 44.592 C 129.055 38.051 127.432 31.933 123.463 27.368 Z " fill="rgb(0,150,136)"/></g></g></g></svg>