<?xml version="1.0" standalone="no"?><!-- Generator: Gravit.io --><svg xmlns="http://www.w3.org/2000/svg" xmlns:xlink="http://www.w3.org/1999/xlink" style="isolation:isolate" viewBox="0 0 148 120" width="148" height="120"><defs><clipPath id="_clipPath_MdSsVMuKnrRRpWNGNi8ORCYtNG7aqA92"><rect width="148" height="120"/></clipPath></defs><g clip-path="url(#_clipPath_MdSsVMuKnrRRpWNGNi8ORCYtNG7aqA92)"><g><rect x="17.062" y="42.37" width="85.877" height="56.303" transform="matrix(1,0,0,1,0,0)" fill="rgb(61,61,59)"/><g><rect x="11.375" y="42.37" width="11.374" height="56.303" transform="matrix(1,0,0,1,0,0)" fill="rgb(230,226,224)"/><rect x="97.251" y="42.37" width="11.374" height="56.303" transform="matrix(1,0,0,1,0,0)" fill="rgb(230,226,224)"/><rect x="69.006" y="42.37" width="11.374" height="56.303" transform="matrix(1,0,0,1,0,0)" fill="rgb(230,226,224)"/><rect x="39.62" y="42.37" width="11.374" height="56.303" transform="matrix(1,0,0,1,0,0)" fill="rgb(230,226,224)"/></g><g><rect x="5.687" y="94.407" width="108.625" height="17.062" transform="matrix(1,0,0,1,0,0)" fill="rgb(204,196,193)"/><mask id="_mask_COeaULpFVBBbb9wE36VmHmsR21l7Cekv"><path d=" M 108.104 30.222 L 114.313 34.123 L 5.687 34.123 L 60 0 L 108.104 30.222 Z " fill="white" stroke="none"/></mask><path d=" M 108.104 30.222 L 114.313 34.123 L 5.687 34.123 L 60 0 L 108.104 30.222 Z " fill="rgb(204,196,193)" mask="url(#_mask_COeaULpFVBBbb9wE36VmHmsR21l7Cekv)" vector-effect="non-scaling-stroke" stroke-width="0.4" stroke="rgb(0,150,136)" stroke-linejoin="round" stroke-linecap="round" stroke-miterlimit="4"/></g><g><rect x="5.687" y="34.123" width="108.625" height="11.374" transform="matrix(1,0,0,1,0,0)" fill="rgb(173,167,164)"/><rect x="0" y="105.782" width="120" height="14.218" transform="matrix(1,0,0,1,0,0)" fill="rgb(173,167,164)"/></g></g><g><g transform="matrix(1,0,0,1,53,4.764)"><text transform="matrix(1,0,0,1,0,21.377)" style="font-family:'Open Sans';font-weight:400;font-size:20px;font-style:normal;fill:#009688;stroke:none;">δ</text></g></g></g></svg>